<?xml version="1.0" encoding="UTF-8"?><svg id="_層_1" xmlns="http://www.w3.org/2000/svg" viewBox="0 0 26.83 28.49"><defs><style>.cls-1{fill:#9cc342;}.cls-1,.cls-2,.cls-3,.cls-4,.cls-5,.cls-6{fill-rule:evenodd;}.cls-2{fill:#ed82b1;}.cls-3{fill:#e8e233;}.cls-4{fill:#e8e231;}.cls-5{fill:#fefefe;}.cls-6{fill:#58bfdb;}</style></defs><path class="cls-5" d="M13.25,23.91c.07,.11,.11,.17,.26,.03,.86-.8,1.9-1.29,3.04-1.54,.89-.2,1.79-.21,2.69-.03,.76,.15,1.48,.4,2.15,.81,.27,.17,.51,.4,.79,.54,.36,.17,.7,.4,1.05,.58,.05,.02,.09,.07,.15,.05,.07-.03,.03-.11,.03-.16,0-.11,.02-.23,.01-.34-.04-.81-.01-1.62-.02-2.43,0-3.44,0-6.87,0-10.31,0-.13-.04-.18-.14-.23-.46-.26-.92-.53-1.37-.79-.22-.13-.23-.13-.23,.13,0,3.39,0,6.78,0,10.17,0,.13,.06,.31-.03,.39-.1,.08-.25-.03-.37-.07-.81-.21-1.64-.25-2.47-.18-.72,.06-1.41,.26-2.07,.54-1.36,.58-2.41,1.52-3.24,2.73-.1,.15-.13,.1-.21,.02-.22-.38-.5-.72-.81-1.04-1.2-1.22-2.65-1.96-4.36-2.17-.93-.12-1.84-.02-2.74,.24-.22,.06-.22,.07-.22-.16V12.07c0-.61,0-1.22,0-1.83,0-.15,0-.22-.18-.12-.45,.27-.9,.53-1.35,.78-.14,.08-.18,.17-.18,.32,0,3.52,0,7.03,0,10.55,0,.83,0,1.65,0,2.48,0,.16,.03,.19,.17,.1,.59-.36,1.19-.69,1.77-1.06,1.28-.81,2.7-1.11,4.21-.94,.7,.08,1.36,.26,2,.54,.6,.26,1.14,.61,1.65,1.02Z"/><path class="cls-5" d="M3.63,4.87h0c.05,.04,.09,.09,.15,.13,1.57,1.02,2.76,2.18,3.75,3.4,.78,.97,1.39,1.98,1.89,3.01,.36,.75,.66,1.5,.89,2.27,.19,.6,.32,1.21,.45,1.81,.08,.35,.22,.7,.33,1.05,.34,1.11,.68,2.23,1.03,3.34,.32,1.04,.65,2.07,.98,3.11,.07,.22,.16,.44,.26,.72,.1-.24,.17-.41,.21-.59,.16-.62,.35-1.24,.53-1.86,.19-.64,.41-1.28,.6-1.92,.21-.67,.39-1.34,.6-2.01,.22-.71,.37-1.42,.7-2.12,.24-.51,.34-1.03,.56-1.55,.46-1.11,1.03-2.21,1.76-3.28,1.13-1.65,2.57-3.2,4.61-4.55,.26-.17,.53-.35,.8-.53-.16-.04-.26,0-.38,.03-1.7,.41-3.19,.99-4.51,1.72-2.19,1.22-3.78,2.66-5,4.25-.08,.1-.1,.24-.35,.31-.04-.05-.08-.09-.11-.13-.58-.82-1.2-1.64-1.98-2.41-1.46-1.45-3.28-2.71-5.77-3.63-.63-.24-1.28-.47-2.03-.58Z"/><path class="cls-5" d="M13.22,26.74c-.53-.53-1.13-.97-1.79-1.31-.85-.43-1.76-.7-2.69-.89-.61-.12-1.23-.14-1.85-.2-.59-.06-1.18,.04-1.77,.08-.23,.02-.47,.04-.7,.08-.46,.09-.92,.17-1.38,.29-.34,.09-.69,.18-1.02,.3-.23,.08-.26,.06-.26-.18,0-3.97,0-7.95,0-11.92,0-.06,.02-.12-.05-.18-.49,.31-.98,.64-1.48,.93-.18,.1-.23,.22-.22,.41,.01,.58,0,1.17,0,1.75v7.03c0,.58,0,1.17,0,1.75,0,.57,0,1.14,0,1.71,0,.65,0,1.3,0,1.95,0,.04-.02,.1,.02,.13,.06,.04,.09-.02,.14-.05,.13-.08,.26-.17,.4-.25,.31-.19,.63-.36,.97-.51,.51-.21,.98-.53,1.49-.75,.56-.24,1.14-.44,1.73-.61,.35-.1,.71-.17,1.06-.25,.48-.11,.97-.16,1.46-.21,.48-.05,.97-.03,1.45-.03,.32,0,.65-.01,.96,.04,.44,.07,.88,.11,1.31,.22,.34,.08,.67,.18,1.01,.29,.33,.1,.64,.25,.95,.38,.04,.16,.19,.13,.3,.17,.03,.01,.05,.06,.08,.02,.03-.03,.02-.08-.01-.11-.04-.03-.05-.09-.12-.09Z"/><path class="cls-5" d="M12.18,2.91c-.09,.08-.14,.13-.2,.17-.81,.74-1.12,1.64-.88,2.71,.35,1.56,1.96,2.48,3.53,1.98,1.64-.53,2.37-2.45,1.53-3.96-.09-.16-.06-.22,.08-.29,.67-.35,1.33-.7,2-1.05,.06-.03,.12-.11,.18-.06,.06,.05,.02,.14,.01,.21-.12,.78-.25,1.56-.37,2.34-.02,.16,.04,.29,.21,.34,.18,.05,.3-.04,.36-.22,.05-.16,.04-.33,.07-.5,.1-.67,.19-1.34,.31-2,.05-.24-.1-.57,.3-.7-.39-.12-.73-.22-1.06-.32-.82-.25-1.64-.51-2.47-.76-.86-.26-1.71-.51-2.57-.78-.11-.03-.2-.03-.3,.02-.74,.4-1.49,.8-2.24,1.2-.42,.22-.83,.45-1.25,.67-.05,.03-.11,.04-.11,.1,0,.07,.08,.06,.13,.07,.17,.05,.34,.1,.52,.16,.73,.22,1.45,.44,2.22,.67Z"/><path class="cls-5" d="M26.81,28.42c0-.09,.01-.15,.01-.21,0-.43,.01-.86,0-1.29-.01-.41,.01-.83,0-1.24-.01-2.85,0-5.69,0-8.54,0-1.06,0-2.12,0-3.18,0-.12-.02-.18-.14-.25-.46-.27-.9-.56-1.35-.85-.05-.03-.1-.11-.17-.08-.08,.03-.04,.12-.04,.18,0,3.95,0,7.89,0,11.84,0,.05,0,.11,0,.16,0,.11-.01,.15-.15,.1-.28-.11-.56-.21-.85-.27-.4-.09-.8-.2-1.2-.27-.48-.09-.96-.17-1.44-.2-.63-.05-1.26-.03-1.89-.02-.68,.01-1.34,.13-2,.27-.58,.12-1.14,.31-1.69,.55-.81,.36-1.56,.81-2.18,1.44-.04,.04-.11,.09-.07,.14,.04,.05,.11,.02,.17-.01,.21-.13,.44-.21,.66-.29,.47-.18,.95-.31,1.44-.42,.45-.11,.91-.17,1.37-.21,.65-.06,1.3-.03,1.95-.02,.36,0,.7,.08,1.06,.11,.18,.01,.37,.03,.55,.08,.48,.13,.98,.22,1.46,.36,.69,.21,1.36,.46,2.01,.78,.34,.17,.67,.35,1,.54,.12,.07,.25,.02,.38,.11,.34,.24,.71,.45,1.09,.68Z"/><path class="cls-2" d="M12.18,2.91c-.76-.23-1.49-.45-2.22-.67-.17-.05-.34-.11-.52-.16-.05-.01-.12,0-.13-.07,0-.06,.06-.08,.11-.1,.42-.22,.84-.45,1.25-.67,.75-.4,1.5-.79,2.24-1.2,.11-.06,.19-.06,.3-.02,.85,.26,1.71,.52,2.57,.78,.82,.25,1.64,.51,2.47,.76,.34,.1,.67,.2,1.06,.32-.4,.14-.26,.46-.3,.7-.13,.66-.21,1.33-.31,2-.03,.17-.01,.33-.07,.5-.06,.19-.18,.27-.36,.22-.17-.05-.24-.18-.21-.34,.12-.78,.24-1.56,.37-2.34,.01-.07,.05-.16-.01-.21-.06-.05-.12,.03-.18,.06-.67,.35-1.33,.71-2,1.05-.15,.08-.17,.13-.08,.29,.85,1.51,.12,3.43-1.53,3.96-1.56,.5-3.18-.41-3.53-1.98-.24-1.07,.07-1.98,.88-2.71,.05-.05,.11-.1,.2-.17Z"/><path class="cls-3" d="M13.19,26.81s-.18-.04-.22-.07c-.1-.07-.12-.04-.26-.12-.18-.1-.36-.16-.69-.26-.33-.1-.67-.2-1.01-.29-.43-.11-.88-.15-1.31-.22-.32-.05-.64-.04-.96-.04-.48,0-.97-.02-1.45,.03-.49,.05-.98,.1-1.46,.21-.35,.08-.71,.15-1.06,.25-.59,.17-1.17,.37-1.73,.61-.52,.22-.98,.54-1.49,.75-.34,.14-.66,.32-.97,.51-.13,.08-.27,.17-.4,.25-.04,.03-.08,.09-.14,.05-.04-.03-.02-.09-.02-.13,0-.65,0-1.3,0-1.95,0-.57,0-1.14,0-1.71,0-.58,0-1.17,0-1.75v-7.03C0,15.32,.01,14.73,0,14.15c0-.19,.05-.3,.22-.41,.5-.29,.99-.62,1.48-.93,.07,.06,.05,.12,.05,.18,0,3.97,0,7.95,0,11.92,0,.24,.04,.26,.26,.18,.33-.12,.68-.21,1.02-.3,.45-.12,.92-.2,1.38-.29,.23-.05,.46-.06,.7-.08,.59-.04,1.18-.14,1.76-.08,.62,.06,1.23,.08,1.85,.2,.94,.19,1.84,.45,2.69,.89,.67,.34,.94,.57,1.56,1.05,.05,.04,.15,.16,.19,.2,.03,.03,.06,.12,.02,.14Z"/><path class="cls-4" d="M26.81,28.42c-.39-.24-.75-.44-1.09-.68-.13-.09-.26-.04-.38-.11-.33-.19-.66-.37-1-.54-.64-.32-1.32-.57-2.01-.78-.48-.15-.97-.24-1.46-.36-.18-.05-.37-.07-.55-.08-.35-.02-.7-.1-1.06-.11-.65-.01-1.3-.04-1.95,.02-.46,.04-.92,.1-1.37,.21-.49,.11-.97,.24-1.44,.42-.22,.09-.46,.16-.66,.29-.05,.03-.13,.07-.17,.01-.04-.05,.03-.1,.07-.14,.62-.63,1.37-1.08,2.18-1.44,.54-.24,1.11-.43,1.69-.55,.66-.14,1.32-.26,2-.27,.63,0,1.26-.02,1.89,.02,.48,.04,.96,.12,1.44,.2,.41,.07,.8,.18,1.2,.27,.29,.06,.57,.17,.85,.27,.14,.05,.15,.01,.15-.1,0-.05,0-.11,0-.16,0-3.95,0-7.89,0-11.84,0-.06-.04-.14,.04-.18,.07-.03,.12,.04,.17,.08,.45,.28,.89,.58,1.35,.85,.11,.07,.14,.14,.14,.25,0,1.06,0,2.12,0,3.18,0,2.85,0,5.69,0,8.54,0,.41-.02,.82,0,1.24,.01,.43,0,.86,0,1.29,0,.06,0,.12-.01,.21Z"/><path class="cls-2" d="M3.63,4.87c.75,.11,1.39,.34,2.03,.58,2.48,.92,4.3,2.19,5.77,3.63,.78,.77,1.4,1.59,1.98,2.41,.03,.04,.07,.08,.11,.13,.24-.06,.27-.2,.35-.31,1.22-1.59,2.81-3.03,5-4.25,1.31-.73,2.8-1.32,4.51-1.72,.11-.03,.22-.07,.38-.03-.27,.18-.53,.35-.8,.53-2.04,1.35-3.48,2.91-4.61,4.55-.73,1.07-1.3,2.16-1.76,3.28-.21,.51-.32,1.04-.56,1.55-.33,.7-.48,1.41-.7,2.12-.21,.67-.39,1.34-.6,2.01-.2,.64-.41,1.28-.6,1.92-.19,.62-.37,1.24-.53,1.86-.05,.18-.11,.35-.21,.59-.1-.29-.19-.5-.26-.72-.33-1.04-.66-2.07-.98-3.11-.35-1.11-.69-2.23-1.03-3.34-.11-.35-.25-.7-.33-1.05-.13-.61-.26-1.21-.45-1.81-.24-.76-.54-1.52-.89-2.27-.5-1.03-1.11-2.03-1.89-3.01-.99-1.23-2.18-2.38-3.75-3.4-.06-.04-.1-.09-.15-.14h0Z"/><path class="cls-6" d="M23.41,24.17c0,.06,.04,.13-.03,.16-.05,.03-.1-.03-.15-.05-.36-.18-.69-.41-1.05-.58-.28-.13-.52-.37-.79-.54-.66-.41-1.38-.66-2.15-.81-.9-.18-1.8-.17-2.69,.03-1.14,.25-2.17,.75-3.04,1.55-.15,.13-.19,.08-.26-.03-.51-.4-1.05-.75-1.65-1.02-.64-.28-1.31-.47-2-.54-1.51-.17-2.93,.13-4.21,.94-.58,.37-1.18,.7-1.77,1.06-.15,.09-.17,.06-.17-.1,0-.83,0-1.65,0-2.48,0-3.52,0-7.03,0-10.55,0-.15,.04-.24,.18-.32,.46-.25,.91-.51,1.35-.78,.17-.1,.18-.03,.18,.12,0,.61,0,1.22,0,1.83v8.6c0,.23,0,.23,.22,.16,.9-.26,1.8-.35,2.74-.24,1.72,.21,3.16,.95,4.36,2.18,.31,.31,.59,.65,.81,1.04,.08,.08,.11,.13,.21-.02,.82-1.21,1.88-2.15,3.24-2.73,.66-.28,1.35-.47,2.07-.54,.84-.08,1.66-.03,2.47,.18,.13,.03,.28,.15,.37,.07,.09-.08,.03-.25,.03-.39,0-3.39,0-6.78,0-10.17,0-.26,0-.26,.23-.13,.46,.26,.91,.53,1.37,.79,.09,.05,.14,.11,.14,.23,0,3.44,0,6.87,0,10.31,0,.81-.02,1.62,.02,2.43,0,.11,0,.23-.01,.34Z"/><polygon class="cls-1" points="8.66 6.15 8.65 6.14 8.65 6.15 8.66 6.15"/></svg>